<?xml version="1.0" encoding="UTF-8" standalone="no"?>
<svg
   xmlns:dc="http://purl.org/dc/elements/1.1/"
   xmlns:cc="http://creativecommons.org/ns#"
   xmlns:rdf="http://www.w3.org/1999/02/22-rdf-syntax-ns#"
   xmlns:svg="http://www.w3.org/2000/svg"
   xmlns="http://www.w3.org/2000/svg"
   xmlns:sodipodi="http://sodipodi.sourceforge.net/DTD/sodipodi-0.dtd"
   xmlns:inkscape="http://www.inkscape.org/namespaces/inkscape"
   width="14.895396mm"
   height="8.8514929mm"
   viewBox="0 0 14.895396 8.8514929"
   version="1.1"
   id="svg8"
   inkscape:version="1.0.2-2 (e86c870879, 2021-01-15)"
   sodipodi:docname="logo.svg">
  <defs
     id="defs2">
    <rect
       x="50.113037"
       y="24.321527"
       width="17.907059"
       height="22.45064"
       id="rect841" />
    <rect
       x="38.55357"
       y="30.238094"
       width="83.154762"
       height="34.773811"
       id="rect835" />
    <rect
       x="38.55357"
       y="30.238094"
       width="83.154762"
       height="34.773811"
       id="rect835-1" />
    <rect
       x="38.55357"
       y="30.238094"
       width="83.154762"
       height="34.773811"
       id="rect854" />
  </defs>
  <sodipodi:namedview
     id="base"
     pagecolor="#ffffff"
     bordercolor="#666666"
     borderopacity="1.0"
     inkscape:pageopacity="0.0"
     inkscape:pageshadow="2"
     inkscape:zoom="11.2"
     inkscape:cx="20.902007"
     inkscape:cy="23.044915"
     inkscape:document-units="mm"
     inkscape:current-layer="layer1"
     inkscape:document-rotation="0"
     showgrid="false"
     inkscape:window-width="1920"
     inkscape:window-height="1017"
     inkscape:window-x="-8"
     inkscape:window-y="-8"
     inkscape:window-maximized="1"
     fit-margin-top="0"
     fit-margin-left="0"
     fit-margin-right="0"
     fit-margin-bottom="0" />
  <metadata
     id="metadata5">
    <rdf:RDF>
      <cc:Work
         rdf:about="">
        <dc:format>image/svg+xml</dc:format>
        <dc:type
           rdf:resource="http://purl.org/dc/dcmitype/StillImage" />
        <dc:title />
      </cc:Work>
    </rdf:RDF>
  </metadata>
  <g
     inkscape:label="Layer 1"
     inkscape:groupmode="layer"
     id="layer1"
     transform="translate(-37.165499,-30.461524)">
    <g
       id="g888"
       transform="translate(0.28374766)"
       style="fill:#a8a8a8;fill-opacity:1">
      <g
         aria-label="G"
         id="text833"
         style="font-size:8.46667px;line-height:1.25;font-family:'Source Sans Pro';-inkscape-font-specification:'Source Sans Pro';letter-spacing:0px;word-spacing:0px;white-space:pre;shape-inside:url(#rect835);fill:#a8a8a8;fill-opacity:1">
        <path
           d="m 42.285841,34.355861 c 0.377583,0.0055 0.737251,0.0083 1.079005,0.0083 0.584288,0 1.041797,-0.0028 1.372526,-0.0083 -0.03583,0.377583 -0.07303,0.912262 -0.111621,1.604037 -0.03583,0.691775 -0.05788,1.214052 -0.06615,1.56683 -0.316949,0.05788 -0.580154,0.09922 -0.789616,0.124024 -0.206706,0.02756 -0.456131,0.05099 -0.748275,0.07028 -0.292144,0.02205 -0.552593,0.03307 -0.781348,0.03307 -0.374827,0 -0.742763,-0.03032 -1.103809,-0.09095 -0.361046,-0.06063 -0.684885,-0.158474 -0.971517,-0.293522 -0.283876,-0.135048 -0.520899,-0.318327 -0.711068,-0.549838 -0.190169,-0.23151 -0.33762,-0.50574 -0.442351,-0.822689 -0.101975,-0.316949 -0.152962,-0.644922 -0.152962,-0.98392 0,-0.559483 0.139182,-1.079004 0.417546,-1.558561 0.278363,-0.479558 0.677994,-0.858519 1.198893,-1.136882 0.523655,-0.28112 1.198894,-0.42168 2.025717,-0.42168 0.603581,0 1.27193,0.07304 2.005047,0.219108 0,0.402387 0.01791,0.85025 0.05374,1.343588 -0.198437,-0.06615 -0.359668,-0.115756 -0.483691,-0.148828 -0.121267,-0.03583 -0.264583,-0.06752 -0.429948,-0.09509 -0.162609,-0.03031 -0.318327,-0.05236 -0.467156,-0.06615 -0.146072,-0.01378 -0.276986,-0.02067 -0.392741,-0.02067 -0.303168,0 -0.5898,0.0441 -0.859896,0.132292 -0.270095,0.08544 -0.502984,0.219108 -0.698665,0.401009 -0.192926,0.179145 -0.33762,0.39412 -0.434083,0.644923 -0.09646,0.250803 -0.144694,0.515386 -0.144694,0.79375 0,0.283876 0.05512,0.537435 0.165365,0.760677 0.110243,0.220487 0.285254,0.388608 0.525033,0.504363 0.239779,0.115755 0.507118,0.173632 0.802018,0.173632 0.245291,0 0.791585,-3.94e-4 1.083729,-0.07205 l 0.701033,-1.453732 c -0.179145,-9.18e-4 -0.297066,8.88e-4 -0.330139,8.88e-4 l -0.438216,0.0041 -0.892377,-5.9e-4 c 0.0027,-0.05512 0.0069,-0.133668 0.0124,-0.235645 0.0055,-0.104731 0.0083,-0.246669 0.0083,-0.425814 z"
           style="font-style:normal;font-variant:normal;font-weight:normal;font-stretch:normal;font-family:'Eras Bold ITC';-inkscape-font-specification:'Eras Bold ITC';fill:#a8a8a8;fill-opacity:1"
           id="path890"
           sodipodi:nodetypes="cscccccsscscsccscccccsccsscsscccccccc" />
      </g>
      <g
         aria-label="A"
         transform="translate(4.3766029,-0.12049586)"
         id="text833-6"
         style="font-size:8.46667px;line-height:1.25;font-family:'Source Sans Pro';-inkscape-font-specification:'Source Sans Pro';letter-spacing:0px;word-spacing:0px;white-space:pre;shape-inside:url(#rect835-1);fill:#a8a8a8;fill-opacity:1">
        <path
           d="m 38.226139,37.646618 0.343132,-0.595313 2.137338,-4.026629 0.227376,-0.450619 c 0.06615,-0.132292 0.158475,-0.322461 0.276986,-0.570508 0.48507,0.0055 0.839226,0.0083 1.062468,0.0083 0.388607,0 0.748275,-0.0028 1.079004,-0.0083 l 0.603581,1.723926 1.227833,3.315562 0.239779,0.603581 c -0.476802,-0.0055 -0.76619,-0.0083 -0.868165,-0.0083 -0.231511,0 -0.571886,0.0028 -1.021127,0.0083 -0.121267,-0.454753 -0.296278,-0.989433 -0.525032,-1.604038 h -2.083595 c -0.239779,0.48507 -0.487826,1.019749 -0.744141,1.604038 -0.51263,-0.0055 -0.826823,-0.0083 -0.942578,-0.0083 -0.209462,0 -0.547082,0.0028 -1.012859,0.0083 z m 2.845453,-2.204665 1.793616,-0.01181 c -0.319705,-0.972896 -0.648268,-2.099541 -0.678585,-2.19876 -0.181901,0.405143 -0.336242,0.737251 -0.463021,0.996322 z"
           style="font-style:normal;font-variant:normal;font-weight:normal;font-stretch:normal;font-family:'Eras Bold ITC';-inkscape-font-specification:'Eras Bold ITC';fill:#a8a8a8;fill-opacity:1"
           id="path893"
           sodipodi:nodetypes="cccccsccccsccccscccccc" />
      </g>
    </g>
    <path
       id="rect881"
       style="fill:none;stroke:#a8a8a8;stroke-width:0.759356;stroke-linecap:round;stroke-opacity:1;paint-order:markers fill stroke"
       d="m 41.591246,30.841202 h 6.043904 c 2.241522,0 4.046068,1.804546 4.046068,4.046068 0,2.241522 -1.804546,4.046068 -4.046068,4.046068 h -6.043904 c -2.241522,0 -4.046069,-1.804546 -4.046069,-4.046068 0,-2.241522 1.804547,-4.046068 4.046069,-4.046068 z" />
    <path
       id="rect897-1"
       style="fill:#a8a8a8;fill-opacity:1;stroke:none;stroke-width:0.799999;stroke-linecap:round;paint-order:markers fill stroke"
       d="m 37.538559,34.355862 h 7.441218 v 0.673013 h -7.441218 z" />
    <path
       id="rect897-1-3"
       style="fill:#a8a8a8;fill-opacity:1;stroke:none;stroke-width:0.799999;stroke-linecap:round;paint-order:markers fill stroke"
       d="m 44.37949,35.310112 h 7.441218 v 0.673014 H 44.37949 Z" />
  </g>
</svg>
